# xmcd CD database file
#
# Track frame offsets:
#	150
#	11700
#	24320
#	38184
#	51915
#	68018
#	86058
#	98132
#	114206
#	131489
#
# Disc length: 1915 seconds
#
# Revision: 1
# Processed by: cddbd v1.5.1PL0 Copyright (c) Steve Scherf et al.
# Submitted via: CDex 1.51
#
DISCID=7807790a
DTITLE=Various Artist - Best Of Country [CD1)
DYEAR=2004
DGENRE=Country
TTITLE0=Holly Dunn - Are You Ever Gonna Love Me Again
TTITLE1=Exile - Give Me One More Chance
TTITLE2=Moe Bandy - I Cheated Me Right Out Of You
TTITLE3=Lacy J Dalton - 16th Avenue
TTITLE4=T.G. Sheppard - Strong Heart
TTITLE5=Janie Fricke - Tell Me A Lie
TTITLE6=Freddy Fender - Before The Next Teardrop Falls
TTITLE7=Juice Newton - Hurt
TTITLE8=Exile - Super Love
TTITLE9=Moe Bandy - Good Old Boys
EXTD=YEAR: 2004
EXTT0=
EXTT1=
EXTT2=
EXTT3=
EXTT4=
EXTT5=
EXTT6=
EXTT7=
EXTT8=
EXTT9=
PLAYORDER=
